<svg xmlns="http://www.w3.org/2000/svg" viewBox="0 0 240 240"><g id="Layer_2" data-name="Layer 2"><g id="Layer_12" data-name="Layer 12"><path d="M68.05,111.5H60.51c-1.41,0-2-.58-2-2V55.65c0-2,.58-3,1.83-3,1,0,1.82.58,3.39,2.49L87.28,81.84l23.28-26.68c1.74-1.91,2.4-2.49,3.4-2.49,1.32,0,1.82,1,1.82,3v53.86c0,1.41-.58,2-2,2h-7.54c-1.41,0-2.07-.58-2.07-2V78.27l-14,16.66c-1.58,1.74-2.16,2.24-3.07,2.24-.75,0-1.57-.5-3-2.24l-14-16.66v31.24C70.12,110.92,69.46,111.5,68.05,111.5Z"/><path d="M185.23,82c.24,16.92-13.08,30-30.33,29.67C138,111.94,124.73,99.1,125,82.34a29.12,29.12,0,0,1,30.16-29.83C172.23,52.26,185.47,65.26,185.23,82Zm-11.53.16c0-11.2-8.42-19.05-18.64-19.05-10.38,0-18.56,7.93-18.56,19.05s8.18,18.88,18.48,18.88A18.65,18.65,0,0,0,173.7,82.18ZM161,82.1a5.93,5.93,0,1,1-6-6A5.8,5.8,0,0,1,161,82.1Z"/><path d="M67.51,129.52c1.61,0,2.27.57,2.27,2V164l37.1-32.82c1.37-1.25,4.35-3,6.54-2.6,1.39.22,2.08,1,2.08,2.93v53.09c0,1.38-.66,2-2.27,2h-7.64c-1.61,0-2.36-.57-2.36-2V151.23l-38.1,33.66c-.58.48-3.31,2.61-4.45,2.61-1.52,0-2.18-1-2.18-2.93V131.48c0-1.39.76-2,2.37-2Z"/><path d="M124.93,184.12,151,133c1.62-3.26,2.55-4.23,4-4.23s2.38,1,4.08,4.23l26,51.17a4.79,4.79,0,0,1,.43,1.46c0,.81-.6,1.22-1.87,1.22H126.46c-1.28,0-2-.41-2-1.22A4.79,4.79,0,0,1,124.93,184.12Zm16.5-7.89h26.71l-13.35-27.74Z"/><path d="M120,240A120,120,0,1,1,240,120,120.13,120.13,0,0,1,120,240Zm0-230A110,110,0,1,0,230,120,110.13,110.13,0,0,0,120,10Z"/><rect x="31.5" y="115.5" width="177" height="9" rx="1.89"/></g></g></svg>